<mxfile host="Electron" agent="Mozilla/5.0 (Windows NT 10.0; Win64; x64) AppleWebKit/537.36 (KHTML, like Gecko) draw.io/24.7.8 Chrome/128.0.6613.36 Electron/32.0.1 Safari/537.36" version="24.7.8">
  <diagram name="Page-1" id="jpprYH2LhsQHSGMehFTs">
    <mxGraphModel dx="914" dy="854" grid="1" gridSize="10" guides="1" tooltips="1" connect="1" arrows="1" fold="1" page="1" pageScale="1" pageWidth="827" pageHeight="1169" math="0" shadow="0">
      <root>
        <mxCell id="0" />
        <mxCell id="1" parent="0" />
        <mxCell id="i_RbDg-cIiDLI-Nq94S2-1" value="START" style="ellipse;whiteSpace=wrap;html=1;" vertex="1" parent="1">
          <mxGeometry x="354" y="160" width="120" height="70" as="geometry" />
        </mxCell>
        <mxCell id="i_RbDg-cIiDLI-Nq94S2-6" style="edgeStyle=orthogonalEdgeStyle;rounded=0;orthogonalLoop=1;jettySize=auto;html=1;entryX=0.5;entryY=0;entryDx=0;entryDy=0;" edge="1" parent="1" source="i_RbDg-cIiDLI-Nq94S2-2" target="i_RbDg-cIiDLI-Nq94S2-4">
          <mxGeometry relative="1" as="geometry" />
        </mxCell>
        <mxCell id="i_RbDg-cIiDLI-Nq94S2-2" value="Declare Variable n0, n1, n2, sum" style="rounded=0;whiteSpace=wrap;html=1;" vertex="1" parent="1">
          <mxGeometry x="317" y="280" width="194" height="60" as="geometry" />
        </mxCell>
        <mxCell id="i_RbDg-cIiDLI-Nq94S2-3" value="" style="endArrow=classic;html=1;rounded=0;entryX=0.5;entryY=0;entryDx=0;entryDy=0;exitX=0.5;exitY=1;exitDx=0;exitDy=0;" edge="1" parent="1" source="i_RbDg-cIiDLI-Nq94S2-1" target="i_RbDg-cIiDLI-Nq94S2-2">
          <mxGeometry width="50" height="50" relative="1" as="geometry">
            <mxPoint x="390" y="460" as="sourcePoint" />
            <mxPoint x="440" y="410" as="targetPoint" />
          </mxGeometry>
        </mxCell>
        <mxCell id="i_RbDg-cIiDLI-Nq94S2-7" style="edgeStyle=orthogonalEdgeStyle;rounded=0;orthogonalLoop=1;jettySize=auto;html=1;exitX=0.5;exitY=1;exitDx=0;exitDy=0;entryX=0.5;entryY=0;entryDx=0;entryDy=0;" edge="1" parent="1" source="i_RbDg-cIiDLI-Nq94S2-4" target="i_RbDg-cIiDLI-Nq94S2-5">
          <mxGeometry relative="1" as="geometry" />
        </mxCell>
        <mxCell id="i_RbDg-cIiDLI-Nq94S2-4" value="Read n0, n1, n2" style="shape=parallelogram;perimeter=parallelogramPerimeter;whiteSpace=wrap;html=1;fixedSize=1;" vertex="1" parent="1">
          <mxGeometry x="332" y="390" width="164" height="60" as="geometry" />
        </mxCell>
        <mxCell id="i_RbDg-cIiDLI-Nq94S2-10" style="edgeStyle=orthogonalEdgeStyle;rounded=0;orthogonalLoop=1;jettySize=auto;html=1;entryX=0.5;entryY=0;entryDx=0;entryDy=0;" edge="1" parent="1" source="i_RbDg-cIiDLI-Nq94S2-5" target="i_RbDg-cIiDLI-Nq94S2-8">
          <mxGeometry relative="1" as="geometry" />
        </mxCell>
        <mxCell id="i_RbDg-cIiDLI-Nq94S2-5" value="sum = n0 + n1 + n2" style="rounded=0;whiteSpace=wrap;html=1;" vertex="1" parent="1">
          <mxGeometry x="344" y="490" width="140" height="60" as="geometry" />
        </mxCell>
        <mxCell id="i_RbDg-cIiDLI-Nq94S2-11" style="edgeStyle=orthogonalEdgeStyle;rounded=0;orthogonalLoop=1;jettySize=auto;html=1;entryX=0.5;entryY=0;entryDx=0;entryDy=0;" edge="1" parent="1" source="i_RbDg-cIiDLI-Nq94S2-8" target="i_RbDg-cIiDLI-Nq94S2-9">
          <mxGeometry relative="1" as="geometry" />
        </mxCell>
        <mxCell id="i_RbDg-cIiDLI-Nq94S2-8" value="Display sum" style="shape=parallelogram;perimeter=parallelogramPerimeter;whiteSpace=wrap;html=1;fixedSize=1;" vertex="1" parent="1">
          <mxGeometry x="354" y="585" width="120" height="60" as="geometry" />
        </mxCell>
        <mxCell id="i_RbDg-cIiDLI-Nq94S2-9" value="End" style="ellipse;whiteSpace=wrap;html=1;" vertex="1" parent="1">
          <mxGeometry x="354" y="690" width="120" height="70" as="geometry" />
        </mxCell>
        <mxCell id="i_RbDg-cIiDLI-Nq94S2-13" value="&lt;h1 style=&quot;margin-top: 0px;&quot;&gt;Flowchart: 00&lt;/h1&gt;&lt;p&gt;&lt;font style=&quot;font-size: 16px;&quot;&gt;Take three input and find their summation.&lt;/font&gt;&lt;/p&gt;" style="text;html=1;whiteSpace=wrap;overflow=hidden;rounded=0;" vertex="1" parent="1">
          <mxGeometry x="50" y="40" width="180" height="120" as="geometry" />
        </mxCell>
        <mxCell id="i_RbDg-cIiDLI-Nq94S2-18" value="Â© Mushphyqur Rahman Tanveer" style="text;html=1;align=center;verticalAlign=middle;whiteSpace=wrap;rounded=0;" vertex="1" parent="1">
          <mxGeometry x="25" y="150" width="230" height="30" as="geometry" />
        </mxCell>
      </root>
    </mxGraphModel>
  </diagram>
</mxfile>
